<?xml version="1.0" standalone="no"?><!DOCTYPE svg PUBLIC "-//W3C//DTD SVG 1.1//EN" "http://www.w3.org/Graphics/SVG/1.1/DTD/svg11.dtd"><svg t="1742278787941" class="icon" viewBox="0 0 1024 1024" version="1.1" xmlns="http://www.w3.org/2000/svg" p-id="7782" data-spm-anchor-id="a313x.search_index.0.i22.197f3a81JLbq99" xmlns:xlink="http://www.w3.org/1999/xlink" width="16" height="16"><path d="M102.144 354.2656l358.4 201.6A25.6 25.6 0 0 1 473.6 578.176v372.1728a25.6 25.6 0 0 1-37.5808 22.6176l-358.4-189.9264A25.6 25.6 0 0 1 64 760.4224V376.576a25.6 25.6 0 0 1 38.144-22.3104zM921.856 354.2656l-358.4 201.6A25.6 25.6 0 0 0 550.4 578.176v372.1728a25.6 25.6 0 0 0 37.5808 22.6176l358.4-189.9264A25.6 25.6 0 0 0 960 760.4224V376.576a25.6 25.6 0 0 0-38.144-22.3104z" fill="#5816BE" p-id="7783" data-spm-anchor-id="a313x.search_index.0.i19.197f3a81JLbq99" class=""></path><path d="M524.288 45.12l356.2368 194.816a25.6 25.6 0 0 1 0 44.928L524.288 479.68a25.6 25.6 0 0 1-24.576 0L143.488 284.864a25.6 25.6 0 0 1 0-44.928L499.712 45.12a25.6 25.6 0 0 1 24.576 0z" fill="#ffffff" p-id="7784" data-spm-anchor-id="a313x.search_index.0.i16.197f3a81JLbq99" class="selected"></path></svg>