<?xml version="1.0" standalone="no"?><!DOCTYPE svg PUBLIC "-//W3C//DTD SVG 1.1//EN" "http://www.w3.org/Graphics/SVG/1.1/DTD/svg11.dtd"><svg t="1742777617185" class="icon" viewBox="0 0 1024 1024" version="1.1" xmlns="http://www.w3.org/2000/svg" p-id="5554" xmlns:xlink="http://www.w3.org/1999/xlink" width="64" height="64"><path d="M940.8 512c0-57.6 32-108.8 83.2-128-25.6-89.6-76.8-172.8-140.8-236.8-44.8 32-108.8 38.4-160 12.8-51.2-32-76.8-83.2-70.4-140.8A533.0432 533.0432 0 0 0 512 0C460.8 0 416 6.4 371.2 19.2c6.4 51.2-19.2 108.8-70.4 140.8s-115.2 25.6-160-12.8C76.8 211.2 25.6 294.4 0 384c51.2 19.2 83.2 70.4 83.2 128S51.2 620.8 0 640c25.6 89.6 76.8 172.8 140.8 236.8 44.8-32 108.8-38.4 160-12.8 51.2 32 76.8 83.2 70.4 140.8 44.8 12.8 96 19.2 140.8 19.2 51.2 0 96-6.4 140.8-19.2-6.4-51.2 19.2-108.8 70.4-140.8s115.2-25.6 160 12.8C947.2 812.8 998.4 729.6 1024 640c-51.2-19.2-83.2-70.4-83.2-128zM512 723.2c-121.6 0-217.6-96-217.6-211.2S390.4 300.8 512 300.8 729.6 396.8 729.6 512s-96 211.2-217.6 211.2z m0-83.2a128 128 0 1 0 0-256 128 128 0 0 0 0 256z" fill="#999999" p-id="5555"></path></svg>