<?xml version="1.0" standalone="no"?><!DOCTYPE svg PUBLIC "-//W3C//DTD SVG 1.1//EN" "http://www.w3.org/Graphics/SVG/1.1/DTD/svg11.dtd"><svg t="1742449323301" class="icon" viewBox="0 0 1024 1024" version="1.1" xmlns="http://www.w3.org/2000/svg" p-id="3744" xmlns:xlink="http://www.w3.org/1999/xlink" width="64" height="64"><path d="M1007.787245 323.186167l-223.57321 228.579429a55.523525 55.523525 0 0 1-79.6444 0.170666l-221.866543-226.702096a57.457746 57.457746 0 0 1 0.227555-79.815067L706.560745 16.89656A55.352858 55.352858 0 0 1 746.496723 0.000569a55.182192 55.182192 0 0 1 39.708422 16.668435l221.809655 226.758985a57.287079 57.287079 0 0 1-0.227555 79.758178z m-137.671035-53.589303l-113.607048-116.110158a15.132436 15.132436 0 0 0-10.695105-4.551109 16.042658 16.042658 0 0 0-11.434661 4.949331L619.520794 271.303529a17.578657 17.578657 0 0 0-0.398222 24.177765l113.607048 116.110157a14.791103 14.791103 0 0 0 10.751994 4.551109 15.92888 15.92888 0 0 0 11.43466-4.892442l114.801714-117.47549a17.635546 17.635546 0 0 0 0.398222-24.177764zM372.680042 1023.886222H56.093551a56.547524 56.547524 0 0 1-56.149302-56.831968v-323.811376c0-45.511086 33.450648-50.403528 47.78664-50.403527h325.290486c31.175094 0 47.672862 16.611546 47.672862 48.184862v332.06026c0 45.852419-33.564426 50.80175-48.014195 50.801749z m0-521.841488H56.093551a56.547524 56.547524 0 0 1-56.149302-56.831968V121.40139c0-45.511086 33.450648-50.460416 47.78664-50.460416h325.290486c21.731543 0 47.672862 8.362662 47.672862 48.241751v332.06026c0 45.852419-33.564426 50.80175-48.014195 50.801749z m209.350995 90.794617h325.290486c31.231983 0 47.729751 16.611546 47.729751 48.184862v332.06026c0 45.852419-33.564426 50.80175-48.014196 50.801749h-316.643379a56.490635 56.490635 0 0 1-56.092414-56.831968v-323.811376c0-45.511086 33.33687-50.403528 47.729752-50.403527z" fill="#246CF9" p-id="3745" data-spm-anchor-id="a313x.search_index.0.i1.7c823a816kxtdI" class="selected"></path></svg>