<?xml version="1.0" standalone="no"?><!DOCTYPE svg PUBLIC "-//W3C//DTD SVG 1.1//EN" "http://www.w3.org/Graphics/SVG/1.1/DTD/svg11.dtd"><svg t="1742797919546" class="icon" viewBox="0 0 1024 1024" version="1.1" xmlns="http://www.w3.org/2000/svg" p-id="25115" xmlns:xlink="http://www.w3.org/1999/xlink" width="64" height="64"><path d="M990.312064 294.451625l-149.831303-149.831303a112.596884 112.596884 0 0 0-203.0517-92.291714H405.781327a96.263385 96.263385 0 0 0-68.511332 28.39745L190.417446 227.578608a134.04391 134.04391 0 1 0-95.220822 250.612465V665.306441a96.263385 96.263385 0 0 0 28.39745 68.511332L288.170208 898.294615a103.809561 103.809561 0 0 0 189.101204 77.546884h110.114589a34.057082 34.057082 0 0 0 0-68.163811h-94.327195a104.256374 104.256374 0 0 0-3.276629-16.283853 103.362748 103.362748 0 0 0-30.135057-48.404745L531.435081 673.597305a161.547734 161.547734 0 0 0 178.278399-106.887606h61.809136a75.312819 75.312819 0 1 0 0-68.16381h-53.816147a161.200213 161.200213 0 0 0-64.092847-114.185553q-4.964589-3.524858-9.631303-6.652549l65.532578-154.994477a112.547238 112.547238 0 0 0 91.844901-21.099504L942.155549 342.608141a28.943555 28.943555 0 0 1 8.439801 20.255524v508.225a34.057082 34.057082 0 0 0 34.007437 34.156374 34.057082 34.057082 0 0 0 34.057082-34.007436v-254.186969-254.137323a96.263385 96.263385 0 0 0-28.347805-68.461686zM66.153777 376.615577A77.497238 77.497238 0 0 1 139.23253 274.096809a77.745468 77.745468 0 0 1 42.695468 12.858286 34.007436 34.007436 0 0 0 5.56034 4.021317 77.447592 77.447592 0 1 1-121.334561 85.639165z m336.450213 588.700992a47.461473 47.461473 0 0 1-58.234632-32.319476 47.759349 47.759349 0 0 1 32.319476-58.234631 45.376346 45.376346 0 0 1 12.510765-1.737607 47.064306 47.064306 0 0 1 13.404391 92.34136z m-5.907861-148.937677a103.908853 103.908853 0 0 0-71.738315 22.439943l-153.207224-153.25687a28.64568 28.64568 0 0 1-8.439802-20.354815V483.602475a134.738952 134.738952 0 0 0 19.510836-4.964589 133.448159 133.448159 0 0 0 61.213385-43.042989L396.994004 491.545818a161.746318 161.746318 0 0 0 63.298513 152.065368q3.723442 2.78017 7.595821 5.312111z m421.642564-305.620114a29.787535 29.787535 0 0 1 40.61034 43.837323 29.787535 29.787535 0 1 1-40.61034-43.837323z m-186.519618 59.22755a93.43357 93.43357 0 0 1-163.28534-86.085978c0.297875-0.695042 0.645397-1.439731 0.893626-2.184419s0.496459-1.439731 0.695042-2.134773a93.43357 93.43357 0 1 1 161.696672 90.40517zM427.476582 417.4245q-3.673796 4.964589-6.950425 9.929179l-148.639802-54.610482a134.04391 134.04391 0 0 0-26.560552-104.256374L385.476157 129.130803a28.993201 28.993201 0 0 1 20.354816-8.439802h214.271672a112.64653 112.64653 0 0 0 4.170254 23.33357 111.901842 111.901842 0 0 0 25.567635 45.227408l-69.802125 164.9733a161.746318 161.746318 0 0 0-152.561827 63.199221z m320.513881-251.059278a56.596317 56.596317 0 0 1-69.156728-38.177691 55.702691 55.702691 0 1 1 69.156728 38.177691z" fill="#ffffff" p-id="25116"></path><path d="M850.16171 690.973368a34.057082 34.057082 0 0 0-34.057082 34.057082v244.357082a34.057082 34.057082 0 1 0 68.16381 0V724.881512a34.057082 34.057082 0 0 0-34.106728-33.908144zM716.912135 813.151909a34.057082 34.057082 0 0 0-34.057082 34.057082v88.866148a34.057082 34.057082 0 0 0 68.16381 0v-88.866148a34.057082 34.057082 0 0 0-34.106728-34.057082z" fill="#ffffff" p-id="25117"></path></svg>